<svg width="225" height="225" viewBox="0 0 225 225" fill="none" xmlns="http://www.w3.org/2000/svg">
<g clip-path="url(#clip0_4_3)">
<circle cx="112.5" cy="112.5" r="112.5" fill="#429EF5"/>
<g filter="url(#filter0_d_4_3)">
<path d="M59.4284 120.39V123.512H56.3064V120.39H59.4284ZM59.4284 117.268V120.39H56.3064V117.268H59.4284ZM59.4284 114.146V117.268H56.3064V114.146H59.4284ZM59.4284 111.024V114.146H56.3064V111.024H59.4284ZM59.4284 107.902V111.024H56.3064V107.902H59.4284ZM59.4284 104.78V107.902H56.3064V104.78H59.4284ZM59.4284 101.659V104.78H56.3064V101.659H59.4284ZM59.4284 98.5366V101.659H56.3064V98.5366H59.4284ZM59.4284 95.4146V98.5366H56.3064V95.4146H59.4284ZM59.4284 92.2927V95.4146H56.3064V92.2927H59.4284ZM59.4284 89.1707V92.2927H56.3064V89.1707H59.4284ZM62.5503 89.1707V92.2927H59.4284V89.1707H62.5503ZM62.5503 92.2927V95.4146H59.4284V92.2927H62.5503ZM62.5503 95.4146V98.5366H59.4284V95.4146H62.5503ZM62.5503 98.5366V101.659H59.4284V98.5366H62.5503ZM62.5503 101.659V104.78H59.4284V101.659H62.5503ZM62.5503 104.78V107.902H59.4284V104.78H62.5503ZM62.5503 107.902V111.024H59.4284V107.902H62.5503ZM65.6723 111.024V114.146H62.5503V111.024H65.6723ZM65.6723 114.146V117.268H62.5503V114.146H65.6723ZM65.6723 117.268V120.39H62.5503V117.268H65.6723ZM65.6723 120.39V123.512H62.5503V120.39H65.6723ZM65.6723 123.512V126.634H62.5503V123.512H65.6723ZM65.6723 126.634V129.756H62.5503V126.634H65.6723ZM65.6723 129.756V132.878H62.5503V129.756H65.6723ZM71.9162 132.878V136H68.7942V132.878H71.9162ZM71.9162 129.756V132.878H68.7942V129.756H71.9162ZM71.9162 126.634V129.756H68.7942V126.634H71.9162ZM71.9162 123.512V126.634H68.7942V123.512H71.9162ZM71.9162 120.39V123.512H68.7942V120.39H71.9162ZM71.9162 117.268V120.39H68.7942V117.268H71.9162ZM71.9162 114.146V117.268H68.7942V114.146H71.9162ZM71.9162 111.024V114.146H68.7942V111.024H71.9162ZM68.7942 111.024V114.146H65.6723V111.024H68.7942ZM68.7942 107.902V111.024H65.6723V107.902H68.7942ZM68.7942 114.146V117.268H65.6723V114.146H68.7942ZM68.7942 117.268V120.39H65.6723V117.268H68.7942ZM68.7942 120.39V123.512H65.6723V120.39H68.7942ZM68.7942 123.512V126.634H65.6723V123.512H68.7942ZM68.7942 126.634V129.756H65.6723V126.634H68.7942ZM68.7942 129.756V132.878H65.6723V129.756H68.7942ZM62.5503 126.634V129.756H59.4284V126.634H62.5503ZM62.5503 123.512V126.634H59.4284V123.512H62.5503ZM62.5503 120.39V123.512H59.4284V120.39H62.5503ZM62.5503 117.268V120.39H59.4284V117.268H62.5503ZM62.5503 114.146V117.268H59.4284V114.146H62.5503ZM62.5503 111.024V114.146H59.4284V111.024H62.5503ZM59.4284 86.0488V89.1707H56.3064V86.0488H59.4284ZM68.7942 86.0488V89.1707H65.6723V86.0488H68.7942ZM68.7942 89.1707V92.2927H65.6723V89.1707H68.7942ZM68.7942 92.2927V95.4146H65.6723V92.2927H68.7942ZM68.7942 95.4146V98.5366H65.6723V95.4146H68.7942ZM68.7942 98.5366V101.659H65.6723V98.5366H68.7942ZM71.9162 101.659V104.78H68.7942V101.659H71.9162ZM71.9162 104.78V107.902H68.7942V104.78H71.9162ZM71.9162 107.902V111.024H68.7942V107.902H71.9162ZM71.9162 98.5366V101.659H68.7942V98.5366H71.9162ZM71.9162 95.4146V98.5366H68.7942V95.4146H71.9162ZM71.9162 92.2927V95.4146H68.7942V92.2927H71.9162ZM71.9162 89.1707V92.2927H68.7942V89.1707H71.9162ZM71.9162 86.0488V89.1707H68.7942V86.0488H71.9162ZM62.5503 86.0488V89.1707H59.4284V86.0488H62.5503ZM65.6723 86.0488V89.1707H62.5503V86.0488H65.6723ZM65.6723 89.1707V92.2927H62.5503V89.1707H65.6723ZM65.6723 92.2927V95.4146H62.5503V92.2927H65.6723ZM65.6723 95.4146V98.5366H62.5503V95.4146H65.6723ZM65.6723 98.5366V101.659H62.5503V98.5366H65.6723ZM65.6723 101.659V104.78H62.5503V101.659H65.6723ZM65.6723 104.78V107.902H62.5503V104.78H65.6723ZM65.6723 107.902V111.024H62.5503V107.902H65.6723ZM68.7942 104.78V107.902H65.6723V104.78H68.7942ZM68.7942 101.659V104.78H65.6723V101.659H68.7942ZM96.8918 132.878V136H93.7698V132.878H96.8918ZM96.8918 129.756V132.878H93.7698V129.756H96.8918ZM96.8918 126.634V129.756H93.7698V126.634H96.8918ZM96.8918 123.512V126.634H93.7698V123.512H96.8918ZM96.8918 120.39V123.512H93.7698V120.39H96.8918ZM96.8918 117.268V120.39H93.7698V117.268H96.8918ZM96.8918 114.146V117.268H93.7698V114.146H96.8918ZM103.136 114.146V117.268H100.014V114.146H103.136ZM103.136 117.268V120.39H100.014V117.268H103.136ZM103.136 120.39V123.512H100.014V120.39H103.136ZM103.136 123.512V126.634H100.014V123.512H103.136ZM103.136 126.634V129.756H100.014V126.634H103.136ZM103.136 129.756V132.878H100.014V129.756H103.136ZM109.38 120.39V123.512H106.258V120.39H109.38ZM109.38 117.268V120.39H106.258V117.268H109.38ZM109.38 114.146V117.268H106.258V114.146H109.38ZM106.258 114.146V117.268H103.136V114.146H106.258ZM106.258 117.268V120.39H103.136V117.268H106.258ZM106.258 120.39V123.512H103.136V120.39H106.258ZM106.258 123.512V126.634H103.136V123.512H106.258ZM106.258 126.634V129.756H103.136V126.634H106.258ZM100.014 129.756V132.878H96.8918V129.756H100.014ZM100.014 126.634V129.756H96.8918V126.634H100.014ZM100.014 123.512V126.634H96.8918V123.512H100.014ZM100.014 120.39V123.512H96.8918V120.39H100.014ZM100.014 117.268V120.39H96.8918V117.268H100.014ZM100.014 114.146V117.268H96.8918V114.146H100.014ZM75.0381 132.878V136H71.9162V132.878H75.0381ZM78.1601 132.878V136H75.0381V132.878H78.1601ZM81.282 132.878V136H78.1601V132.878H81.282ZM84.404 132.878V136H81.282V132.878H84.404ZM90.6479 132.878V136H87.5259V132.878H90.6479ZM93.7698 132.878V136H90.6479V132.878H93.7698ZM93.7698 129.756V132.878H90.6479V129.756H93.7698ZM90.6479 129.756V132.878H87.5259V129.756H90.6479ZM84.404 129.756V132.878H81.282V129.756H84.404ZM81.282 129.756V132.878H78.1601V129.756H81.282ZM78.1601 129.756V132.878H75.0381V129.756H78.1601ZM75.0381 129.756V132.878H71.9162V129.756H75.0381ZM75.0381 126.634V129.756H71.9162V126.634H75.0381ZM78.1601 126.634V129.756H75.0381V126.634H78.1601ZM81.282 126.634V129.756H78.1601V126.634H81.282ZM84.404 126.634V129.756H81.282V126.634H84.404ZM90.6479 126.634V129.756H87.5259V126.634H90.6479ZM93.7698 126.634V129.756H90.6479V126.634H93.7698ZM93.7698 123.512V126.634H90.6479V123.512H93.7698ZM90.6479 123.512V126.634H87.5259V123.512H90.6479ZM84.404 123.512V126.634H81.282V123.512H84.404ZM81.282 123.512V126.634H78.1601V123.512H81.282ZM78.1601 123.512V126.634H75.0381V123.512H78.1601ZM75.0381 123.512V126.634H71.9162V123.512H75.0381ZM75.0381 120.39V123.512H71.9162V120.39H75.0381ZM93.7698 120.39V123.512H90.6479V120.39H93.7698ZM106.258 73.561V70.439H109.38V73.561H106.258ZM106.258 76.6829V73.561H109.38V76.6829H106.258ZM106.258 79.8049V76.6829H109.38V79.8049H106.258ZM100.014 79.8049V76.6829H103.136V79.8049H100.014ZM100.014 76.6829V73.561H103.136V76.6829H100.014ZM100.014 73.561V70.439H103.136V73.561H100.014ZM100.014 70.439V67.3171H103.136V70.439H100.014ZM100.014 67.3171V64.1951H103.136V67.3171H100.014ZM100.014 64.1951V61.0732H103.136V64.1951H100.014ZM93.7698 61.0732V57.9512H96.8918V61.0732H93.7698ZM93.7698 64.1951V61.0732H96.8918V64.1951H93.7698ZM93.7698 67.3171V64.1951H96.8918V67.3171H93.7698ZM93.7698 70.439V67.3171H96.8918V70.439H93.7698ZM93.7698 73.561V70.439H96.8918V73.561H93.7698ZM93.7698 76.6829V73.561H96.8918V76.6829H93.7698ZM93.7698 79.8049V76.6829H96.8918V79.8049H93.7698ZM96.8918 79.8049V76.6829H100.014V79.8049H96.8918ZM96.8918 76.6829V73.561H100.014V76.6829H96.8918ZM96.8918 73.561V70.439H100.014V73.561H96.8918ZM96.8918 70.439V67.3171H100.014V70.439H96.8918ZM96.8918 67.3171V64.1951H100.014V67.3171H96.8918ZM96.8918 64.1951V61.0732H100.014V64.1951H96.8918ZM103.136 67.3171V64.1951H106.258V67.3171H103.136ZM103.136 70.439V67.3171H106.258V70.439H103.136ZM103.136 73.561V70.439H106.258V73.561H103.136ZM103.136 76.6829V73.561H106.258V76.6829H103.136ZM103.136 79.8049V76.6829H106.258V79.8049H103.136ZM68.7942 61.0732V57.9512H71.9162V61.0732H68.7942ZM68.7942 64.1951V61.0732H71.9162V64.1951H68.7942ZM68.7942 67.3171V64.1951H71.9162V67.3171H68.7942ZM68.7942 70.439V67.3171H71.9162V70.439H68.7942ZM68.7942 73.561V70.439H71.9162V73.561H68.7942ZM68.7942 76.6829V73.561H71.9162V76.6829H68.7942ZM68.7942 79.8049V76.6829H71.9162V79.8049H68.7942ZM62.5503 79.8049V76.6829H65.6723V79.8049H62.5503ZM62.5503 76.6829V73.561H65.6723V76.6829H62.5503ZM62.5503 73.561V70.439H65.6723V73.561H62.5503ZM62.5503 70.439V67.3171H65.6723V70.439H62.5503ZM62.5503 67.3171V64.1951H65.6723V67.3171H62.5503ZM62.5503 64.1951V61.0732H65.6723V64.1951H62.5503ZM56.3064 73.561V70.439H59.4284V73.561H56.3064ZM56.3064 76.6829V73.561H59.4284V76.6829H56.3064ZM56.3064 79.8049V76.6829H59.4284V79.8049H56.3064ZM59.4284 79.8049V76.6829H62.5503V79.8049H59.4284ZM59.4284 76.6829V73.561H62.5503V76.6829H59.4284ZM59.4284 73.561V70.439H62.5503V73.561H59.4284ZM59.4284 70.439V67.3171H62.5503V70.439H59.4284ZM59.4284 67.3171V64.1951H62.5503V67.3171H59.4284ZM65.6723 64.1951V61.0732H68.7942V64.1951H65.6723ZM65.6723 67.3171V64.1951H68.7942V67.3171H65.6723ZM65.6723 70.439V67.3171H68.7942V70.439H65.6723ZM65.6723 73.561V70.439H68.7942V73.561H65.6723ZM65.6723 76.6829V73.561H68.7942V76.6829H65.6723ZM65.6723 79.8049V76.6829H68.7942V79.8049H65.6723ZM90.6479 61.0732V57.9512H93.7698V61.0732H90.6479ZM87.5259 61.0732V57.9512H90.6479V61.0732H87.5259ZM81.282 61.0732V57.9512H84.404V61.0732H81.282ZM78.1601 61.0732V57.9512H81.282V61.0732H78.1601ZM75.0381 61.0732V57.9512H78.1601V61.0732H75.0381ZM71.9162 61.0732V57.9512H75.0381V61.0732H71.9162ZM71.9162 64.1951V61.0732H75.0381V64.1951H71.9162ZM75.0381 64.1951V61.0732H78.1601V64.1951H75.0381ZM78.1601 64.1951V61.0732H81.282V64.1951H78.1601ZM81.282 64.1951V61.0732H84.404V64.1951H81.282ZM87.5259 64.1951V61.0732H90.6479V64.1951H87.5259ZM90.6479 64.1951V61.0732H93.7698V64.1951H90.6479ZM90.6479 67.3171V64.1951H93.7698V67.3171H90.6479ZM87.5259 67.3171V64.1951H90.6479V67.3171H87.5259ZM81.282 67.3171V64.1951H84.404V67.3171H81.282ZM78.1601 67.3171V64.1951H81.282V67.3171H78.1601ZM75.0381 67.3171V64.1951H78.1601V67.3171H75.0381ZM71.9162 67.3171V64.1951H75.0381V67.3171H71.9162ZM71.9162 70.439V67.3171H75.0381V70.439H71.9162ZM75.0381 70.439V67.3171H78.1601V70.439H75.0381ZM78.1601 70.439V67.3171H81.282V70.439H78.1601ZM81.282 70.439V67.3171H84.404V70.439H81.282ZM87.5259 70.439V67.3171H90.6479V70.439H87.5259ZM90.6479 70.439V67.3171H93.7698V70.439H90.6479ZM90.6479 73.561V70.439H93.7698V73.561H90.6479ZM71.9162 73.561V70.439H75.0381V73.561H71.9162ZM59.4284 82.9268V86.0488H56.3064V82.9268H59.4284ZM62.5503 82.9268V86.0488H59.4284V82.9268H62.5503ZM59.4284 79.8049V82.9268H56.3064V79.8049H59.4284ZM68.7942 79.8049V82.9268H65.6723V79.8049H68.7942ZM68.7942 82.9268V86.0488H65.6723V82.9268H68.7942ZM71.9162 82.9268V86.0488H68.7942V82.9268H71.9162ZM71.9162 79.8049V82.9268H68.7942V79.8049H71.9162ZM62.5503 79.8049V82.9268H59.4284V79.8049H62.5503ZM65.6723 79.8049V82.9268H62.5503V79.8049H65.6723ZM65.6723 82.9268V86.0488H62.5503V82.9268H65.6723ZM84.404 92.2927V95.4146H81.282V92.2927H84.404ZM84.404 95.4146V98.5366H81.282V95.4146H84.404ZM90.6479 95.4146V98.5366H87.5259V95.4146H90.6479ZM93.7698 95.4146V98.5366H90.6479V95.4146H93.7698ZM96.8918 95.4146V98.5366H93.7698V95.4146H96.8918ZM100.014 95.4146V98.5366H96.8918V95.4146H100.014ZM103.136 95.4146V98.5366H100.014V95.4146H103.136ZM106.258 95.4146V98.5366H103.136V95.4146H106.258ZM109.38 92.2927V95.4146H106.258V92.2927H109.38ZM106.258 92.2927V95.4146H103.136V92.2927H106.258ZM103.136 92.2927V95.4146H100.014V92.2927H103.136ZM100.014 92.2927V95.4146H96.8918V92.2927H100.014ZM96.8918 92.2927V95.4146H93.7698V92.2927H96.8918ZM93.7698 92.2927V95.4146H90.6479V92.2927H93.7698ZM90.6479 92.2927V95.4146H87.5259V92.2927H90.6479ZM109.38 95.4146V98.5366H106.258V95.4146H109.38ZM109.38 98.5366V101.659H106.258V98.5366H109.38ZM109.38 101.659V104.78H106.258V101.659H109.38ZM109.38 104.78V107.902H106.258V104.78H109.38ZM109.38 107.902V111.024H106.258V107.902H109.38ZM109.38 111.024V114.146H106.258V111.024H109.38ZM106.258 111.024V114.146H103.136V111.024H106.258ZM103.136 111.024V114.146H100.014V111.024H103.136ZM100.014 111.024V114.146H96.8918V111.024H100.014ZM96.8918 111.024V114.146H93.7698V111.024H96.8918ZM96.8918 107.902V111.024H93.7698V107.902H96.8918ZM100.014 107.902V111.024H96.8918V107.902H100.014ZM103.136 107.902V111.024H100.014V107.902H103.136ZM106.258 107.902V111.024H103.136V107.902H106.258ZM106.258 104.78V107.902H103.136V104.78H106.258ZM103.136 104.78V107.902H100.014V104.78H103.136ZM100.014 104.78V107.902H96.8918V104.78H100.014ZM96.8918 104.78V107.902H93.7698V104.78H96.8918ZM84.404 98.5366V101.659H81.282V98.5366H84.404ZM84.404 101.659V104.78H81.282V101.659H84.404ZM90.6479 101.659V104.78H87.5259V101.659H90.6479ZM93.7698 101.659V104.78H90.6479V101.659H93.7698ZM96.8918 101.659V104.78H93.7698V101.659H96.8918ZM100.014 101.659V104.78H96.8918V101.659H100.014ZM103.136 101.659V104.78H100.014V101.659H103.136ZM106.258 101.659V104.78H103.136V101.659H106.258ZM106.258 98.5366V101.659H103.136V98.5366H106.258ZM103.136 98.5366V101.659H100.014V98.5366H103.136ZM100.014 98.5366V101.659H96.8918V98.5366H100.014ZM96.8918 98.5366V101.659H93.7698V98.5366H96.8918ZM93.7698 98.5366V101.659H90.6479V98.5366H93.7698ZM90.6479 98.5366V101.659H87.5259V98.5366H90.6479ZM78.1601 120.39V123.512H75.0381V120.39H78.1601ZM81.282 120.39V123.512H78.1601V120.39H81.282ZM84.404 120.39V123.512H81.282V120.39H84.404ZM90.6479 120.39V123.512H87.5259V120.39H90.6479ZM93.7698 117.268V120.39H90.6479V117.268H93.7698ZM75.0381 117.268V120.39H71.9162V117.268H75.0381ZM78.1601 70.439V73.561H75.0381V70.439H78.1601ZM81.282 70.439V73.561H78.1601V70.439H81.282ZM84.404 70.439V73.561H81.282V70.439H84.404ZM90.6479 70.439V73.561H87.5259V70.439H90.6479ZM75.0381 73.561V76.6829H71.9162V73.561H75.0381ZM93.7698 73.561V76.6829H90.6479V73.561H93.7698ZM96.8918 79.8049V82.9268H93.7698V79.8049H96.8918ZM100.014 79.8049V82.9268H96.8918V79.8049H100.014ZM103.136 79.8049V82.9268H100.014V79.8049H103.136ZM106.258 79.8049V82.9268H103.136V79.8049H106.258ZM109.38 79.8049V82.9268H106.258V79.8049H109.38ZM84.404 104.78V107.902H81.282V104.78H84.404ZM90.6479 104.78V107.902H87.5259V104.78H90.6479ZM93.7698 104.78V107.902H90.6479V104.78H93.7698ZM87.5259 57.9512V61.0732H84.404V57.9512H87.5259ZM87.5259 61.0732V64.1951H84.404V61.0732H87.5259ZM87.5259 64.1951V67.3171H84.404V64.1951H87.5259ZM87.5259 67.3171V70.439H84.404V67.3171H87.5259ZM87.5259 70.439V73.561H84.404V70.439H87.5259ZM87.5259 92.2927V95.4146H84.404V92.2927H87.5259ZM87.5259 95.4146V98.5366H84.404V95.4146H87.5259ZM87.5259 98.5366V101.659H84.404V98.5366H87.5259ZM87.5259 101.659V104.78H84.404V101.659H87.5259ZM87.5259 104.78V107.902H84.404V104.78H87.5259ZM87.5259 120.39V123.512H84.404V120.39H87.5259ZM87.5259 123.512V126.634H84.404V123.512H87.5259ZM87.5259 126.634V129.756H84.404V126.634H87.5259ZM87.5259 129.756V132.878H84.404V129.756H87.5259ZM87.5259 132.878V136H84.404V132.878H87.5259ZM124.928 120.39V123.512H121.806V120.39H124.928ZM124.928 117.268V120.39H121.806V117.268H124.928ZM124.928 114.146V117.268H121.806V114.146H124.928ZM124.928 111.024V114.146H121.806V111.024H124.928ZM131.172 111.024V114.146H128.05V111.024H131.172ZM131.172 114.146V117.268H128.05V114.146H131.172ZM131.172 117.268V120.39H128.05V117.268H131.172ZM131.172 120.39V123.512H128.05V120.39H131.172ZM131.172 123.512V126.634H128.05V123.512H131.172ZM131.172 126.634V129.756H128.05V126.634H131.172ZM131.172 129.756V132.878H128.05V129.756H131.172ZM137.416 132.878V136H134.294V132.878H137.416ZM137.416 129.756V132.878H134.294V129.756H137.416ZM137.416 126.634V129.756H134.294V126.634H137.416ZM137.416 123.512V126.634H134.294V123.512H137.416ZM137.416 120.39V123.512H134.294V120.39H137.416ZM137.416 117.268V120.39H134.294V117.268H137.416ZM137.416 114.146V117.268H134.294V114.146H137.416ZM137.416 111.024V114.146H134.294V111.024H137.416ZM134.294 111.024V114.146H131.172V111.024H134.294ZM134.294 114.146V117.268H131.172V114.146H134.294ZM134.294 117.268V120.39H131.172V117.268H134.294ZM134.294 120.39V123.512H131.172V120.39H134.294ZM134.294 123.512V126.634H131.172V123.512H134.294ZM134.294 126.634V129.756H131.172V126.634H134.294ZM134.294 129.756V132.878H131.172V129.756H134.294ZM128.05 126.634V129.756H124.928V126.634H128.05ZM128.05 123.512V126.634H124.928V123.512H128.05ZM128.05 120.39V123.512H124.928V120.39H128.05ZM128.05 117.268V120.39H124.928V117.268H128.05ZM128.05 114.146V117.268H124.928V114.146H128.05ZM128.05 111.024V114.146H124.928V111.024H128.05ZM156.148 132.878V136H153.026V132.878H156.148ZM156.148 129.756V132.878H153.026V129.756H156.148ZM156.148 126.634V129.756H153.026V126.634H156.148ZM156.148 123.512V126.634H153.026V123.512H156.148ZM156.148 120.39V123.512H153.026V120.39H156.148ZM156.148 117.268V120.39H153.026V117.268H156.148ZM156.148 114.146V117.268H153.026V114.146H156.148ZM156.148 111.024V114.146H153.026V111.024H156.148ZM156.148 107.902V111.024H153.026V107.902H156.148ZM156.148 104.78V107.902H153.026V104.78H156.148ZM156.148 101.659V104.78H153.026V101.659H156.148ZM159.27 101.659V104.78H156.148V101.659H159.27ZM159.27 104.78V107.902H156.148V104.78H159.27ZM159.27 107.902V111.024H156.148V107.902H159.27ZM162.392 111.024V114.146H159.27V111.024H162.392ZM162.392 114.146V117.268H159.27V114.146H162.392ZM162.392 117.268V120.39H159.27V117.268H162.392ZM162.392 120.39V123.512H159.27V120.39H162.392ZM162.392 123.512V126.634H159.27V123.512H162.392ZM162.392 126.634V129.756H159.27V126.634H162.392ZM162.392 129.756V132.878H159.27V129.756H162.392ZM168.636 120.39V123.512H165.514V120.39H168.636ZM168.636 117.268V120.39H165.514V117.268H168.636ZM168.636 114.146V117.268H165.514V114.146H168.636ZM168.636 111.024V114.146H165.514V111.024H168.636ZM165.514 111.024V114.146H162.392V111.024H165.514ZM165.514 107.902V111.024H162.392V107.902H165.514ZM165.514 114.146V117.268H162.392V114.146H165.514ZM165.514 117.268V120.39H162.392V117.268H165.514ZM165.514 120.39V123.512H162.392V120.39H165.514ZM165.514 123.512V126.634H162.392V123.512H165.514ZM165.514 126.634V129.756H162.392V126.634H165.514ZM159.27 129.756V132.878H156.148V129.756H159.27ZM159.27 126.634V129.756H156.148V126.634H159.27ZM159.27 123.512V126.634H156.148V123.512H159.27ZM159.27 120.39V123.512H156.148V120.39H159.27ZM159.27 117.268V120.39H156.148V117.268H159.27ZM159.27 114.146V117.268H156.148V114.146H159.27ZM159.27 111.024V114.146H156.148V111.024H159.27ZM168.636 101.659V104.78H165.514V101.659H168.636ZM168.636 104.78V107.902H165.514V104.78H168.636ZM168.636 107.902V111.024H165.514V107.902H168.636ZM162.392 101.659V104.78H159.27V101.659H162.392ZM162.392 104.78V107.902H159.27V104.78H162.392ZM162.392 107.902V111.024H159.27V107.902H162.392ZM165.514 104.78V107.902H162.392V104.78H165.514ZM165.514 101.659V104.78H162.392V101.659H165.514ZM140.538 132.878V136H137.416V132.878H140.538ZM143.66 132.878V136H140.538V132.878H143.66ZM146.782 132.878V136H143.66V132.878H146.782ZM149.904 132.878V136H146.782V132.878H149.904ZM153.026 132.878V136H149.904V132.878H153.026ZM153.026 129.756V132.878H149.904V129.756H153.026ZM149.904 129.756V132.878H146.782V129.756H149.904ZM146.782 129.756V132.878H143.66V129.756H146.782ZM143.66 129.756V132.878H140.538V129.756H143.66ZM140.538 129.756V132.878H137.416V129.756H140.538ZM140.538 126.634V129.756H137.416V126.634H140.538ZM143.66 126.634V129.756H140.538V126.634H143.66ZM146.782 126.634V129.756H143.66V126.634H146.782ZM149.904 126.634V129.756H146.782V126.634H149.904ZM153.026 126.634V129.756H149.904V126.634H153.026ZM153.026 123.512V126.634H149.904V123.512H153.026ZM149.904 123.512V126.634H146.782V123.512H149.904ZM146.782 123.512V126.634H143.66V123.512H146.782ZM143.66 123.512V126.634H140.538V123.512H143.66ZM140.538 123.512V126.634H137.416V123.512H140.538ZM140.538 120.39V123.512H137.416V120.39H140.538ZM153.026 120.39V123.512H149.904V120.39H153.026ZM156.148 57.9512V61.0732H153.026V57.9512H156.148ZM156.148 61.0732V64.1951H153.026V61.0732H156.148ZM156.148 64.1951V67.3171H153.026V64.1951H156.148ZM156.148 67.3171V70.439H153.026V67.3171H156.148ZM156.148 70.439V73.561H153.026V70.439H156.148ZM156.148 73.561V76.6829H153.026V73.561H156.148ZM156.148 76.6829V79.8049H153.026V76.6829H156.148ZM156.148 79.8049V82.9268H153.026V79.8049H156.148ZM156.148 82.9268V86.0488H153.026V82.9268H156.148ZM156.148 86.0488V89.1707H153.026V86.0488H156.148ZM156.148 89.1707V92.2927H153.026V89.1707H156.148ZM156.148 92.2927V95.4146H153.026V92.2927H156.148ZM159.27 92.2927V95.4146H156.148V92.2927H159.27ZM159.27 95.4146V98.5366H156.148V95.4146H159.27ZM156.148 95.4146V98.5366H153.026V95.4146H156.148ZM156.148 98.5366V101.659H153.026V98.5366H156.148ZM159.27 98.5366V101.659H156.148V98.5366H159.27ZM162.392 98.5366V101.659H159.27V98.5366H162.392ZM165.514 98.5366V101.659H162.392V98.5366H165.514ZM168.636 98.5366V101.659H165.514V98.5366H168.636ZM168.636 95.4146V98.5366H165.514V95.4146H168.636ZM165.514 95.4146V98.5366H162.392V95.4146H165.514ZM165.514 92.2927V95.4146H162.392V92.2927H165.514ZM168.636 89.1707V92.2927H165.514V89.1707H168.636ZM168.636 86.0488V89.1707H165.514V86.0488H168.636ZM168.636 82.9268V86.0488H165.514V82.9268H168.636ZM168.636 79.8049V82.9268H165.514V79.8049H168.636ZM168.636 76.6829V79.8049H165.514V76.6829H168.636ZM168.636 73.561V76.6829H165.514V73.561H168.636ZM168.636 70.439V73.561H165.514V70.439H168.636ZM168.636 67.3171V70.439H165.514V67.3171H168.636ZM168.636 92.2927V95.4146H165.514V92.2927H168.636ZM168.636 64.1951V67.3171H165.514V64.1951H168.636ZM168.636 61.0732V64.1951H165.514V61.0732H168.636ZM168.636 57.9512V61.0732H165.514V57.9512H168.636ZM165.514 57.9512V61.0732H162.392V57.9512H165.514ZM162.392 57.9512V61.0732H159.27V57.9512H162.392ZM159.27 57.9512V61.0732H156.148V57.9512H159.27ZM159.27 61.0732V64.1951H156.148V61.0732H159.27ZM159.27 64.1951V67.3171H156.148V64.1951H159.27ZM159.27 67.3171V70.439H156.148V67.3171H159.27ZM159.27 70.439V73.561H156.148V70.439H159.27ZM159.27 73.561V76.6829H156.148V73.561H159.27ZM159.27 76.6829V79.8049H156.148V76.6829H159.27ZM159.27 79.8049V82.9268H156.148V79.8049H159.27ZM159.27 82.9268V86.0488H156.148V82.9268H159.27ZM159.27 86.0488V89.1707H156.148V86.0488H159.27ZM162.392 89.1707V92.2927H159.27V89.1707H162.392ZM162.392 92.2927V95.4146H159.27V92.2927H162.392ZM162.392 95.4146V98.5366H159.27V95.4146H162.392ZM159.27 89.1707V92.2927H156.148V89.1707H159.27ZM165.514 89.1707V92.2927H162.392V89.1707H165.514ZM165.514 82.9268V86.0488H162.392V82.9268H165.514ZM165.514 79.8049V82.9268H162.392V79.8049H165.514ZM165.514 76.6829V79.8049H162.392V76.6829H165.514ZM165.514 73.561V76.6829H162.392V73.561H165.514ZM165.514 70.439V73.561H162.392V70.439H165.514ZM165.514 67.3171V70.439H162.392V67.3171H165.514ZM165.514 64.1951V67.3171H162.392V64.1951H165.514ZM165.514 61.0732V64.1951H162.392V61.0732H165.514ZM162.392 61.0732V64.1951H159.27V61.0732H162.392ZM162.392 64.1951V67.3171H159.27V64.1951H162.392ZM162.392 67.3171V70.439H159.27V67.3171H162.392ZM162.392 70.439V73.561H159.27V70.439H162.392ZM162.392 73.561V76.6829H159.27V73.561H162.392ZM162.392 76.6829V79.8049H159.27V76.6829H162.392ZM162.392 79.8049V82.9268H159.27V79.8049H162.392ZM162.392 82.9268V86.0488H159.27V82.9268H162.392ZM162.392 86.0488V89.1707H159.27V86.0488H162.392ZM165.514 86.0488V89.1707H162.392V86.0488H165.514ZM153.026 117.268V120.39H149.904V117.268H153.026ZM140.538 117.268V120.39H137.416V117.268H140.538ZM143.66 120.39V123.512H140.538V120.39H143.66ZM146.782 120.39V123.512H143.66V120.39H146.782ZM149.904 120.39V123.512H146.782V120.39H149.904ZM137.416 107.902V111.024H134.294V107.902H137.416ZM134.294 107.902V111.024H131.172V107.902H134.294ZM131.172 107.902V111.024H128.05V107.902H131.172ZM128.05 107.902V111.024H124.928V107.902H128.05ZM124.928 107.902V111.024H121.806V107.902H124.928Z" fill="white"/>
</g>
<g filter="url(#filter1_d_4_3)">
<rect x="57" y="152" width="111" height="20" fill="white"/>
</g>
</g>
<defs>
<filter id="filter0_d_4_3" x="52.3064" y="57.9512" width="120.329" height="86.0488" filterUnits="userSpaceOnUse" color-interpolation-filters="sRGB">
<feFlood flood-opacity="0" result="BackgroundImageFix"/>
<feColorMatrix in="SourceAlpha" type="matrix" values="0 0 0 0 0 0 0 0 0 0 0 0 0 0 0 0 0 0 127 0" result="hardAlpha"/>
<feOffset dy="4"/>
<feGaussianBlur stdDeviation="2"/>
<feComposite in2="hardAlpha" operator="out"/>
<feColorMatrix type="matrix" values="0 0 0 0 0 0 0 0 0 0 0 0 0 0 0 0 0 0 0.25 0"/>
<feBlend mode="normal" in2="BackgroundImageFix" result="effect1_dropShadow_4_3"/>
<feBlend mode="normal" in="SourceGraphic" in2="effect1_dropShadow_4_3" result="shape"/>
</filter>
<filter id="filter1_d_4_3" x="53" y="152" width="119" height="28" filterUnits="userSpaceOnUse" color-interpolation-filters="sRGB">
<feFlood flood-opacity="0" result="BackgroundImageFix"/>
<feColorMatrix in="SourceAlpha" type="matrix" values="0 0 0 0 0 0 0 0 0 0 0 0 0 0 0 0 0 0 127 0" result="hardAlpha"/>
<feOffset dy="4"/>
<feGaussianBlur stdDeviation="2"/>
<feComposite in2="hardAlpha" operator="out"/>
<feColorMatrix type="matrix" values="0 0 0 0 0 0 0 0 0 0 0 0 0 0 0 0 0 0 0.25 0"/>
<feBlend mode="normal" in2="BackgroundImageFix" result="effect1_dropShadow_4_3"/>
<feBlend mode="normal" in="SourceGraphic" in2="effect1_dropShadow_4_3" result="shape"/>
</filter>
<clipPath id="clip0_4_3">
<rect width="225" height="225" fill="white"/>
</clipPath>
</defs>
</svg>
