<svg width="152" height="152" viewBox="0 0 152 152" fill="none" xmlns="http://www.w3.org/2000/svg">
<g clip-path="url(#clip0_2003_2)">
<circle cx="76" cy="76" r="76" fill="#429EF5"/>
<g filter="url(#filter0_d_2003_2)">
<path d="M62.5 34.375C75 34.375 80.4844 40.625 78.9531 53.125H64.8906C65.2656 50 63.8906 48.4375 60.7656 48.4375H32.6406C29.5156 48.4375 27.7656 50 27.3906 53.125L23.9219 81.25C23.5469 84.375 24.9219 85.9375 28.0469 85.9375H56.1719C59.2969 85.9375 61.0469 84.375 61.4219 81.25L62.3125 74.2188H38.875L40.5625 60.1562H78.0625L75.4844 81.25C73.9531 93.75 66.9375 100 54.4375 100H26.3125C13.8125 100 8.32812 93.75 9.85938 81.25L13.3281 53.125C14.8594 40.625 21.875 34.375 34.375 34.375H62.5ZM110.688 100H82.5625L84.2969 85.9375H112.422C115.547 85.9375 117.297 84.375 117.672 81.25L123.438 34.375H137.5L131.734 81.25C130.203 93.75 123.188 100 110.688 100Z" fill="white"/>
</g>
<g filter="url(#filter1_d_2003_2)">
<rect x="20" y="110" width="111" height="20" fill="white"/>
</g>
</g>
<defs>
<filter id="filter0_d_2003_2" x="3.5625" y="34.375" width="137.938" height="73.625" filterUnits="userSpaceOnUse" color-interpolation-filters="sRGB">
<feFlood flood-opacity="0" result="BackgroundImageFix"/>
<feColorMatrix in="SourceAlpha" type="matrix" values="0 0 0 0 0 0 0 0 0 0 0 0 0 0 0 0 0 0 127 0" result="hardAlpha"/>
<feOffset dy="4"/>
<feGaussianBlur stdDeviation="2"/>
<feComposite in2="hardAlpha" operator="out"/>
<feColorMatrix type="matrix" values="0 0 0 0 0 0 0 0 0 0 0 0 0 0 0 0 0 0 0.25 0"/>
<feBlend mode="normal" in2="BackgroundImageFix" result="effect1_dropShadow_2003_2"/>
<feBlend mode="normal" in="SourceGraphic" in2="effect1_dropShadow_2003_2" result="shape"/>
</filter>
<filter id="filter1_d_2003_2" x="16" y="110" width="119" height="28" filterUnits="userSpaceOnUse" color-interpolation-filters="sRGB">
<feFlood flood-opacity="0" result="BackgroundImageFix"/>
<feColorMatrix in="SourceAlpha" type="matrix" values="0 0 0 0 0 0 0 0 0 0 0 0 0 0 0 0 0 0 127 0" result="hardAlpha"/>
<feOffset dy="4"/>
<feGaussianBlur stdDeviation="2"/>
<feComposite in2="hardAlpha" operator="out"/>
<feColorMatrix type="matrix" values="0 0 0 0 0 0 0 0 0 0 0 0 0 0 0 0 0 0 0.25 0"/>
<feBlend mode="normal" in2="BackgroundImageFix" result="effect1_dropShadow_2003_2"/>
<feBlend mode="normal" in="SourceGraphic" in2="effect1_dropShadow_2003_2" result="shape"/>
</filter>
<clipPath id="clip0_2003_2">
<rect width="152" height="152" fill="white"/>
</clipPath>
</defs>
</svg>
