<svg width="152" height="152" viewBox="0 0 152 152" fill="none" xmlns="http://www.w3.org/2000/svg">
<g clip-path="url(#clip0_4_3)">
<circle cx="76" cy="76" r="76" fill="#429EF5"/>
<g filter="url(#filter0_d_4_3)">
<path d="M22.4284 88.3902V91.5122H19.3064V88.3902H22.4284ZM22.4284 85.2683V88.3902H19.3064V85.2683H22.4284ZM22.4284 82.1463V85.2683H19.3064V82.1463H22.4284ZM22.4284 79.0244V82.1463H19.3064V79.0244H22.4284ZM22.4284 75.9024V79.0244H19.3064V75.9024H22.4284ZM22.4284 72.7805V75.9024H19.3064V72.7805H22.4284ZM22.4284 69.6585V72.7805H19.3064V69.6585H22.4284ZM22.4284 66.5366V69.6585H19.3064V66.5366H22.4284ZM22.4284 63.4146V66.5366H19.3064V63.4146H22.4284ZM22.4284 60.2927V63.4146H19.3064V60.2927H22.4284ZM22.4284 57.1707V60.2927H19.3064V57.1707H22.4284ZM25.5503 57.1707V60.2927H22.4284V57.1707H25.5503ZM25.5503 60.2927V63.4146H22.4284V60.2927H25.5503ZM25.5503 63.4146V66.5366H22.4284V63.4146H25.5503ZM25.5503 66.5366V69.6585H22.4284V66.5366H25.5503ZM25.5503 69.6585V72.7805H22.4284V69.6585H25.5503ZM25.5503 72.7805V75.9024H22.4284V72.7805H25.5503ZM25.5503 75.9024V79.0244H22.4284V75.9024H25.5503ZM28.6723 79.0244V82.1463H25.5503V79.0244H28.6723ZM28.6723 82.1463V85.2683H25.5503V82.1463H28.6723ZM28.6723 85.2683V88.3902H25.5503V85.2683H28.6723ZM28.6723 88.3902V91.5122H25.5503V88.3902H28.6723ZM28.6723 91.5122V94.6341H25.5503V91.5122H28.6723ZM28.6723 94.6341V97.7561H25.5503V94.6341H28.6723ZM28.6723 97.7561V100.878H25.5503V97.7561H28.6723ZM34.9162 100.878V104H31.7942V100.878H34.9162ZM34.9162 97.7561V100.878H31.7942V97.7561H34.9162ZM34.9162 94.6341V97.7561H31.7942V94.6341H34.9162ZM34.9162 91.5122V94.6341H31.7942V91.5122H34.9162ZM34.9162 88.3902V91.5122H31.7942V88.3902H34.9162ZM34.9162 85.2683V88.3902H31.7942V85.2683H34.9162ZM34.9162 82.1463V85.2683H31.7942V82.1463H34.9162ZM34.9162 79.0244V82.1463H31.7942V79.0244H34.9162ZM31.7942 79.0244V82.1463H28.6723V79.0244H31.7942ZM31.7942 75.9024V79.0244H28.6723V75.9024H31.7942ZM31.7942 82.1463V85.2683H28.6723V82.1463H31.7942ZM31.7942 85.2683V88.3902H28.6723V85.2683H31.7942ZM31.7942 88.3902V91.5122H28.6723V88.3902H31.7942ZM31.7942 91.5122V94.6341H28.6723V91.5122H31.7942ZM31.7942 94.6341V97.7561H28.6723V94.6341H31.7942ZM31.7942 97.7561V100.878H28.6723V97.7561H31.7942ZM25.5503 94.6341V97.7561H22.4284V94.6341H25.5503ZM25.5503 91.5122V94.6341H22.4284V91.5122H25.5503ZM25.5503 88.3902V91.5122H22.4284V88.3902H25.5503ZM25.5503 85.2683V88.3902H22.4284V85.2683H25.5503ZM25.5503 82.1463V85.2683H22.4284V82.1463H25.5503ZM25.5503 79.0244V82.1463H22.4284V79.0244H25.5503ZM22.4284 54.0488V57.1707H19.3064V54.0488H22.4284ZM31.7942 54.0488V57.1707H28.6723V54.0488H31.7942ZM31.7942 57.1707V60.2927H28.6723V57.1707H31.7942ZM31.7942 60.2927V63.4146H28.6723V60.2927H31.7942ZM31.7942 63.4146V66.5366H28.6723V63.4146H31.7942ZM31.7942 66.5366V69.6585H28.6723V66.5366H31.7942ZM34.9162 69.6585V72.7805H31.7942V69.6585H34.9162ZM34.9162 72.7805V75.9024H31.7942V72.7805H34.9162ZM34.9162 75.9024V79.0244H31.7942V75.9024H34.9162ZM34.9162 66.5366V69.6585H31.7942V66.5366H34.9162ZM34.9162 63.4146V66.5366H31.7942V63.4146H34.9162ZM34.9162 60.2927V63.4146H31.7942V60.2927H34.9162ZM34.9162 57.1707V60.2927H31.7942V57.1707H34.9162ZM34.9162 54.0488V57.1707H31.7942V54.0488H34.9162ZM25.5503 54.0488V57.1707H22.4284V54.0488H25.5503ZM28.6723 54.0488V57.1707H25.5503V54.0488H28.6723ZM28.6723 57.1707V60.2927H25.5503V57.1707H28.6723ZM28.6723 60.2927V63.4146H25.5503V60.2927H28.6723ZM28.6723 63.4146V66.5366H25.5503V63.4146H28.6723ZM28.6723 66.5366V69.6585H25.5503V66.5366H28.6723ZM28.6723 69.6585V72.7805H25.5503V69.6585H28.6723ZM28.6723 72.7805V75.9024H25.5503V72.7805H28.6723ZM28.6723 75.9024V79.0244H25.5503V75.9024H28.6723ZM31.7942 72.7805V75.9024H28.6723V72.7805H31.7942ZM31.7942 69.6585V72.7805H28.6723V69.6585H31.7942ZM59.8918 100.878V104H56.7698V100.878H59.8918ZM59.8918 97.7561V100.878H56.7698V97.7561H59.8918ZM59.8918 94.6341V97.7561H56.7698V94.6341H59.8918ZM59.8918 91.5122V94.6341H56.7698V91.5122H59.8918ZM59.8918 88.3902V91.5122H56.7698V88.3902H59.8918ZM59.8918 85.2683V88.3902H56.7698V85.2683H59.8918ZM59.8918 82.1463V85.2683H56.7698V82.1463H59.8918ZM66.1357 82.1463V85.2683H63.0137V82.1463H66.1357ZM66.1357 85.2683V88.3902H63.0137V85.2683H66.1357ZM66.1357 88.3902V91.5122H63.0137V88.3902H66.1357ZM66.1357 91.5122V94.6341H63.0137V91.5122H66.1357ZM66.1357 94.6341V97.7561H63.0137V94.6341H66.1357ZM66.1357 97.7561V100.878H63.0137V97.7561H66.1357ZM72.3796 88.3902V91.5122H69.2576V88.3902H72.3796ZM72.3796 85.2683V88.3902H69.2576V85.2683H72.3796ZM72.3796 82.1463V85.2683H69.2576V82.1463H72.3796ZM69.2576 82.1463V85.2683H66.1357V82.1463H69.2576ZM69.2576 85.2683V88.3902H66.1357V85.2683H69.2576ZM69.2576 88.3902V91.5122H66.1357V88.3902H69.2576ZM69.2576 91.5122V94.6341H66.1357V91.5122H69.2576ZM69.2576 94.6341V97.7561H66.1357V94.6341H69.2576ZM63.0137 97.7561V100.878H59.8918V97.7561H63.0137ZM63.0137 94.6341V97.7561H59.8918V94.6341H63.0137ZM63.0137 91.5122V94.6341H59.8918V91.5122H63.0137ZM63.0137 88.3902V91.5122H59.8918V88.3902H63.0137ZM63.0137 85.2683V88.3902H59.8918V85.2683H63.0137ZM63.0137 82.1463V85.2683H59.8918V82.1463H63.0137ZM38.0381 100.878V104H34.9162V100.878H38.0381ZM41.1601 100.878V104H38.0381V100.878H41.1601ZM44.282 100.878V104H41.1601V100.878H44.282ZM47.404 100.878V104H44.282V100.878H47.404ZM53.6479 100.878V104H50.5259V100.878H53.6479ZM56.7698 100.878V104H53.6479V100.878H56.7698ZM56.7698 97.7561V100.878H53.6479V97.7561H56.7698ZM53.6479 97.7561V100.878H50.5259V97.7561H53.6479ZM47.404 97.7561V100.878H44.282V97.7561H47.404ZM44.282 97.7561V100.878H41.1601V97.7561H44.282ZM41.1601 97.7561V100.878H38.0381V97.7561H41.1601ZM38.0381 97.7561V100.878H34.9162V97.7561H38.0381ZM38.0381 94.6341V97.7561H34.9162V94.6341H38.0381ZM41.1601 94.6341V97.7561H38.0381V94.6341H41.1601ZM44.282 94.6341V97.7561H41.1601V94.6341H44.282ZM47.404 94.6341V97.7561H44.282V94.6341H47.404ZM53.6479 94.6341V97.7561H50.5259V94.6341H53.6479ZM56.7698 94.6341V97.7561H53.6479V94.6341H56.7698ZM56.7698 91.5122V94.6341H53.6479V91.5122H56.7698ZM53.6479 91.5122V94.6341H50.5259V91.5122H53.6479ZM47.404 91.5122V94.6341H44.282V91.5122H47.404ZM44.282 91.5122V94.6341H41.1601V91.5122H44.282ZM41.1601 91.5122V94.6341H38.0381V91.5122H41.1601ZM38.0381 91.5122V94.6341H34.9162V91.5122H38.0381ZM38.0381 88.3902V91.5122H34.9162V88.3902H38.0381ZM56.7698 88.3902V91.5122H53.6479V88.3902H56.7698ZM69.2576 41.561V38.439H72.3796V41.561H69.2576ZM69.2576 44.6829V41.561H72.3796V44.6829H69.2576ZM69.2576 47.8049V44.6829H72.3796V47.8049H69.2576ZM63.0137 47.8049V44.6829H66.1357V47.8049H63.0137ZM63.0137 44.6829V41.561H66.1357V44.6829H63.0137ZM63.0137 41.561V38.439H66.1357V41.561H63.0137ZM63.0137 38.439V35.3171H66.1357V38.439H63.0137ZM63.0137 35.3171V32.1951H66.1357V35.3171H63.0137ZM63.0137 32.1951V29.0732H66.1357V32.1951H63.0137ZM56.7698 29.0732V25.9512H59.8918V29.0732H56.7698ZM56.7698 32.1951V29.0732H59.8918V32.1951H56.7698ZM56.7698 35.3171V32.1951H59.8918V35.3171H56.7698ZM56.7698 38.439V35.3171H59.8918V38.439H56.7698ZM56.7698 41.561V38.439H59.8918V41.561H56.7698ZM56.7698 44.6829V41.561H59.8918V44.6829H56.7698ZM56.7698 47.8049V44.6829H59.8918V47.8049H56.7698ZM59.8918 47.8049V44.6829H63.0137V47.8049H59.8918ZM59.8918 44.6829V41.561H63.0137V44.6829H59.8918ZM59.8918 41.561V38.439H63.0137V41.561H59.8918ZM59.8918 38.439V35.3171H63.0137V38.439H59.8918ZM59.8918 35.3171V32.1951H63.0137V35.3171H59.8918ZM59.8918 32.1951V29.0732H63.0137V32.1951H59.8918ZM66.1357 35.3171V32.1951H69.2576V35.3171H66.1357ZM66.1357 38.439V35.3171H69.2576V38.439H66.1357ZM66.1357 41.561V38.439H69.2576V41.561H66.1357ZM66.1357 44.6829V41.561H69.2576V44.6829H66.1357ZM66.1357 47.8049V44.6829H69.2576V47.8049H66.1357ZM31.7942 29.0732V25.9512H34.9162V29.0732H31.7942ZM31.7942 32.1951V29.0732H34.9162V32.1951H31.7942ZM31.7942 35.3171V32.1951H34.9162V35.3171H31.7942ZM31.7942 38.439V35.3171H34.9162V38.439H31.7942ZM31.7942 41.561V38.439H34.9162V41.561H31.7942ZM31.7942 44.6829V41.561H34.9162V44.6829H31.7942ZM31.7942 47.8049V44.6829H34.9162V47.8049H31.7942ZM25.5503 47.8049V44.6829H28.6723V47.8049H25.5503ZM25.5503 44.6829V41.561H28.6723V44.6829H25.5503ZM25.5503 41.561V38.439H28.6723V41.561H25.5503ZM25.5503 38.439V35.3171H28.6723V38.439H25.5503ZM25.5503 35.3171V32.1951H28.6723V35.3171H25.5503ZM25.5503 32.1951V29.0732H28.6723V32.1951H25.5503ZM19.3064 41.561V38.439H22.4284V41.561H19.3064ZM19.3064 44.6829V41.561H22.4284V44.6829H19.3064ZM19.3064 47.8049V44.6829H22.4284V47.8049H19.3064ZM22.4284 47.8049V44.6829H25.5503V47.8049H22.4284ZM22.4284 44.6829V41.561H25.5503V44.6829H22.4284ZM22.4284 41.561V38.439H25.5503V41.561H22.4284ZM22.4284 38.439V35.3171H25.5503V38.439H22.4284ZM22.4284 35.3171V32.1951H25.5503V35.3171H22.4284ZM28.6723 32.1951V29.0732H31.7942V32.1951H28.6723ZM28.6723 35.3171V32.1951H31.7942V35.3171H28.6723ZM28.6723 38.439V35.3171H31.7942V38.439H28.6723ZM28.6723 41.561V38.439H31.7942V41.561H28.6723ZM28.6723 44.6829V41.561H31.7942V44.6829H28.6723ZM28.6723 47.8049V44.6829H31.7942V47.8049H28.6723ZM53.6479 29.0732V25.9512H56.7698V29.0732H53.6479ZM50.5259 29.0732V25.9512H53.6479V29.0732H50.5259ZM44.282 29.0732V25.9512H47.404V29.0732H44.282ZM41.1601 29.0732V25.9512H44.282V29.0732H41.1601ZM38.0381 29.0732V25.9512H41.1601V29.0732H38.0381ZM34.9162 29.0732V25.9512H38.0381V29.0732H34.9162ZM34.9162 32.1951V29.0732H38.0381V32.1951H34.9162ZM38.0381 32.1951V29.0732H41.1601V32.1951H38.0381ZM41.1601 32.1951V29.0732H44.282V32.1951H41.1601ZM44.282 32.1951V29.0732H47.404V32.1951H44.282ZM50.5259 32.1951V29.0732H53.6479V32.1951H50.5259ZM53.6479 32.1951V29.0732H56.7698V32.1951H53.6479ZM53.6479 35.3171V32.1951H56.7698V35.3171H53.6479ZM50.5259 35.3171V32.1951H53.6479V35.3171H50.5259ZM44.282 35.3171V32.1951H47.404V35.3171H44.282ZM41.1601 35.3171V32.1951H44.282V35.3171H41.1601ZM38.0381 35.3171V32.1951H41.1601V35.3171H38.0381ZM34.9162 35.3171V32.1951H38.0381V35.3171H34.9162ZM34.9162 38.439V35.3171H38.0381V38.439H34.9162ZM38.0381 38.439V35.3171H41.1601V38.439H38.0381ZM41.1601 38.439V35.3171H44.282V38.439H41.1601ZM44.282 38.439V35.3171H47.404V38.439H44.282ZM50.5259 38.439V35.3171H53.6479V38.439H50.5259ZM53.6479 38.439V35.3171H56.7698V38.439H53.6479ZM53.6479 41.561V38.439H56.7698V41.561H53.6479ZM34.9162 41.561V38.439H38.0381V41.561H34.9162ZM22.4284 50.9268V54.0488H19.3064V50.9268H22.4284ZM25.5503 50.9268V54.0488H22.4284V50.9268H25.5503ZM22.4284 47.8049V50.9268H19.3064V47.8049H22.4284ZM31.7942 47.8049V50.9268H28.6723V47.8049H31.7942ZM31.7942 50.9268V54.0488H28.6723V50.9268H31.7942ZM34.9162 50.9268V54.0488H31.7942V50.9268H34.9162ZM34.9162 47.8049V50.9268H31.7942V47.8049H34.9162ZM25.5503 47.8049V50.9268H22.4284V47.8049H25.5503ZM28.6723 47.8049V50.9268H25.5503V47.8049H28.6723ZM28.6723 50.9268V54.0488H25.5503V50.9268H28.6723ZM47.404 60.2927V63.4146H44.282V60.2927H47.404ZM47.404 63.4146V66.5366H44.282V63.4146H47.404ZM53.6479 63.4146V66.5366H50.5259V63.4146H53.6479ZM56.7698 63.4146V66.5366H53.6479V63.4146H56.7698ZM59.8918 63.4146V66.5366H56.7698V63.4146H59.8918ZM63.0137 63.4146V66.5366H59.8918V63.4146H63.0137ZM66.1357 63.4146V66.5366H63.0137V63.4146H66.1357ZM69.2576 63.4146V66.5366H66.1357V63.4146H69.2576ZM72.3796 60.2927V63.4146H69.2576V60.2927H72.3796ZM69.2576 60.2927V63.4146H66.1357V60.2927H69.2576ZM66.1357 60.2927V63.4146H63.0137V60.2927H66.1357ZM63.0137 60.2927V63.4146H59.8918V60.2927H63.0137ZM59.8918 60.2927V63.4146H56.7698V60.2927H59.8918ZM56.7698 60.2927V63.4146H53.6479V60.2927H56.7698ZM53.6479 60.2927V63.4146H50.5259V60.2927H53.6479ZM72.3796 63.4146V66.5366H69.2576V63.4146H72.3796ZM72.3796 66.5366V69.6585H69.2576V66.5366H72.3796ZM72.3796 69.6585V72.7805H69.2576V69.6585H72.3796ZM72.3796 72.7805V75.9024H69.2576V72.7805H72.3796ZM72.3796 75.9024V79.0244H69.2576V75.9024H72.3796ZM72.3796 79.0244V82.1463H69.2576V79.0244H72.3796ZM69.2576 79.0244V82.1463H66.1357V79.0244H69.2576ZM66.1357 79.0244V82.1463H63.0137V79.0244H66.1357ZM63.0137 79.0244V82.1463H59.8918V79.0244H63.0137ZM59.8918 79.0244V82.1463H56.7698V79.0244H59.8918ZM59.8918 75.9024V79.0244H56.7698V75.9024H59.8918ZM63.0137 75.9024V79.0244H59.8918V75.9024H63.0137ZM66.1357 75.9024V79.0244H63.0137V75.9024H66.1357ZM69.2576 75.9024V79.0244H66.1357V75.9024H69.2576ZM69.2576 72.7805V75.9024H66.1357V72.7805H69.2576ZM66.1357 72.7805V75.9024H63.0137V72.7805H66.1357ZM63.0137 72.7805V75.9024H59.8918V72.7805H63.0137ZM59.8918 72.7805V75.9024H56.7698V72.7805H59.8918ZM47.404 66.5366V69.6585H44.282V66.5366H47.404ZM47.404 69.6585V72.7805H44.282V69.6585H47.404ZM53.6479 69.6585V72.7805H50.5259V69.6585H53.6479ZM56.7698 69.6585V72.7805H53.6479V69.6585H56.7698ZM59.8918 69.6585V72.7805H56.7698V69.6585H59.8918ZM63.0137 69.6585V72.7805H59.8918V69.6585H63.0137ZM66.1357 69.6585V72.7805H63.0137V69.6585H66.1357ZM69.2576 69.6585V72.7805H66.1357V69.6585H69.2576ZM69.2576 66.5366V69.6585H66.1357V66.5366H69.2576ZM66.1357 66.5366V69.6585H63.0137V66.5366H66.1357ZM63.0137 66.5366V69.6585H59.8918V66.5366H63.0137ZM59.8918 66.5366V69.6585H56.7698V66.5366H59.8918ZM56.7698 66.5366V69.6585H53.6479V66.5366H56.7698ZM53.6479 66.5366V69.6585H50.5259V66.5366H53.6479ZM41.1601 88.3902V91.5122H38.0381V88.3902H41.1601ZM44.282 88.3902V91.5122H41.1601V88.3902H44.282ZM47.404 88.3902V91.5122H44.282V88.3902H47.404ZM53.6479 88.3902V91.5122H50.5259V88.3902H53.6479ZM56.7698 85.2683V88.3902H53.6479V85.2683H56.7698ZM38.0381 85.2683V88.3902H34.9162V85.2683H38.0381ZM41.1601 38.439V41.561H38.0381V38.439H41.1601ZM44.282 38.439V41.561H41.1601V38.439H44.282ZM47.404 38.439V41.561H44.282V38.439H47.404ZM53.6479 38.439V41.561H50.5259V38.439H53.6479ZM38.0381 41.561V44.6829H34.9162V41.561H38.0381ZM56.7698 41.561V44.6829H53.6479V41.561H56.7698ZM59.8918 47.8049V50.9268H56.7698V47.8049H59.8918ZM63.0137 47.8049V50.9268H59.8918V47.8049H63.0137ZM66.1357 47.8049V50.9268H63.0137V47.8049H66.1357ZM69.2576 47.8049V50.9268H66.1357V47.8049H69.2576ZM72.3796 47.8049V50.9268H69.2576V47.8049H72.3796ZM47.404 72.7805V75.9024H44.282V72.7805H47.404ZM53.6479 72.7805V75.9024H50.5259V72.7805H53.6479ZM56.7698 72.7805V75.9024H53.6479V72.7805H56.7698ZM50.5259 25.9512V29.0732H47.404V25.9512H50.5259ZM50.5259 29.0732V32.1951H47.404V29.0732H50.5259ZM50.5259 32.1951V35.3171H47.404V32.1951H50.5259ZM50.5259 35.3171V38.439H47.404V35.3171H50.5259ZM50.5259 38.439V41.561H47.404V38.439H50.5259ZM50.5259 60.2927V63.4146H47.404V60.2927H50.5259ZM50.5259 63.4146V66.5366H47.404V63.4146H50.5259ZM50.5259 66.5366V69.6585H47.404V66.5366H50.5259ZM50.5259 69.6585V72.7805H47.404V69.6585H50.5259ZM50.5259 72.7805V75.9024H47.404V72.7805H50.5259ZM50.5259 88.3902V91.5122H47.404V88.3902H50.5259ZM50.5259 91.5122V94.6341H47.404V91.5122H50.5259ZM50.5259 94.6341V97.7561H47.404V94.6341H50.5259ZM50.5259 97.7561V100.878H47.404V97.7561H50.5259ZM50.5259 100.878V104H47.404V100.878H50.5259ZM87.9284 88.3902V91.5122H84.8064V88.3902H87.9284ZM87.9284 85.2683V88.3902H84.8064V85.2683H87.9284ZM87.9284 82.1463V85.2683H84.8064V82.1463H87.9284ZM87.9284 79.0244V82.1463H84.8064V79.0244H87.9284ZM94.1723 79.0244V82.1463H91.0503V79.0244H94.1723ZM94.1723 82.1463V85.2683H91.0503V82.1463H94.1723ZM94.1723 85.2683V88.3902H91.0503V85.2683H94.1723ZM94.1723 88.3902V91.5122H91.0503V88.3902H94.1723ZM94.1723 91.5122V94.6341H91.0503V91.5122H94.1723ZM94.1723 94.6341V97.7561H91.0503V94.6341H94.1723ZM94.1723 97.7561V100.878H91.0503V97.7561H94.1723ZM100.416 100.878V104H97.2942V100.878H100.416ZM100.416 97.7561V100.878H97.2942V97.7561H100.416ZM100.416 94.6341V97.7561H97.2942V94.6341H100.416ZM100.416 91.5122V94.6341H97.2942V91.5122H100.416ZM100.416 88.3902V91.5122H97.2942V88.3902H100.416ZM100.416 85.2683V88.3902H97.2942V85.2683H100.416ZM100.416 82.1463V85.2683H97.2942V82.1463H100.416ZM100.416 79.0244V82.1463H97.2942V79.0244H100.416ZM97.2942 79.0244V82.1463H94.1723V79.0244H97.2942ZM97.2942 82.1463V85.2683H94.1723V82.1463H97.2942ZM97.2942 85.2683V88.3902H94.1723V85.2683H97.2942ZM97.2942 88.3902V91.5122H94.1723V88.3902H97.2942ZM97.2942 91.5122V94.6341H94.1723V91.5122H97.2942ZM97.2942 94.6341V97.7561H94.1723V94.6341H97.2942ZM97.2942 97.7561V100.878H94.1723V97.7561H97.2942ZM91.0503 94.6341V97.7561H87.9284V94.6341H91.0503ZM91.0503 91.5122V94.6341H87.9284V91.5122H91.0503ZM91.0503 88.3902V91.5122H87.9284V88.3902H91.0503ZM91.0503 85.2683V88.3902H87.9284V85.2683H91.0503ZM91.0503 82.1463V85.2683H87.9284V82.1463H91.0503ZM91.0503 79.0244V82.1463H87.9284V79.0244H91.0503ZM119.148 100.878V104H116.026V100.878H119.148ZM119.148 97.7561V100.878H116.026V97.7561H119.148ZM119.148 94.6341V97.7561H116.026V94.6341H119.148ZM119.148 91.5122V94.6341H116.026V91.5122H119.148ZM119.148 88.3902V91.5122H116.026V88.3902H119.148ZM119.148 85.2683V88.3902H116.026V85.2683H119.148ZM119.148 82.1463V85.2683H116.026V82.1463H119.148ZM119.148 79.0244V82.1463H116.026V79.0244H119.148ZM119.148 75.9024V79.0244H116.026V75.9024H119.148ZM119.148 72.7805V75.9024H116.026V72.7805H119.148ZM119.148 69.6585V72.7805H116.026V69.6585H119.148ZM122.27 69.6585V72.7805H119.148V69.6585H122.27ZM122.27 72.7805V75.9024H119.148V72.7805H122.27ZM122.27 75.9024V79.0244H119.148V75.9024H122.27ZM125.392 79.0244V82.1463H122.27V79.0244H125.392ZM125.392 82.1463V85.2683H122.27V82.1463H125.392ZM125.392 85.2683V88.3902H122.27V85.2683H125.392ZM125.392 88.3902V91.5122H122.27V88.3902H125.392ZM125.392 91.5122V94.6341H122.27V91.5122H125.392ZM125.392 94.6341V97.7561H122.27V94.6341H125.392ZM125.392 97.7561V100.878H122.27V97.7561H125.392ZM131.636 88.3902V91.5122H128.514V88.3902H131.636ZM131.636 85.2683V88.3902H128.514V85.2683H131.636ZM131.636 82.1463V85.2683H128.514V82.1463H131.636ZM131.636 79.0244V82.1463H128.514V79.0244H131.636ZM128.514 79.0244V82.1463H125.392V79.0244H128.514ZM128.514 75.9024V79.0244H125.392V75.9024H128.514ZM128.514 82.1463V85.2683H125.392V82.1463H128.514ZM128.514 85.2683V88.3902H125.392V85.2683H128.514ZM128.514 88.3902V91.5122H125.392V88.3902H128.514ZM128.514 91.5122V94.6341H125.392V91.5122H128.514ZM128.514 94.6341V97.7561H125.392V94.6341H128.514ZM122.27 97.7561V100.878H119.148V97.7561H122.27ZM122.27 94.6341V97.7561H119.148V94.6341H122.27ZM122.27 91.5122V94.6341H119.148V91.5122H122.27ZM122.27 88.3902V91.5122H119.148V88.3902H122.27ZM122.27 85.2683V88.3902H119.148V85.2683H122.27ZM122.27 82.1463V85.2683H119.148V82.1463H122.27ZM122.27 79.0244V82.1463H119.148V79.0244H122.27ZM131.636 69.6585V72.7805H128.514V69.6585H131.636ZM131.636 72.7805V75.9024H128.514V72.7805H131.636ZM131.636 75.9024V79.0244H128.514V75.9024H131.636ZM125.392 69.6585V72.7805H122.27V69.6585H125.392ZM125.392 72.7805V75.9024H122.27V72.7805H125.392ZM125.392 75.9024V79.0244H122.27V75.9024H125.392ZM128.514 72.7805V75.9024H125.392V72.7805H128.514ZM128.514 69.6585V72.7805H125.392V69.6585H128.514ZM103.538 100.878V104H100.416V100.878H103.538ZM106.66 100.878V104H103.538V100.878H106.66ZM109.782 100.878V104H106.66V100.878H109.782ZM112.904 100.878V104H109.782V100.878H112.904ZM116.026 100.878V104H112.904V100.878H116.026ZM116.026 97.7561V100.878H112.904V97.7561H116.026ZM112.904 97.7561V100.878H109.782V97.7561H112.904ZM109.782 97.7561V100.878H106.66V97.7561H109.782ZM106.66 97.7561V100.878H103.538V97.7561H106.66ZM103.538 97.7561V100.878H100.416V97.7561H103.538ZM103.538 94.6341V97.7561H100.416V94.6341H103.538ZM106.66 94.6341V97.7561H103.538V94.6341H106.66ZM109.782 94.6341V97.7561H106.66V94.6341H109.782ZM112.904 94.6341V97.7561H109.782V94.6341H112.904ZM116.026 94.6341V97.7561H112.904V94.6341H116.026ZM116.026 91.5122V94.6341H112.904V91.5122H116.026ZM112.904 91.5122V94.6341H109.782V91.5122H112.904ZM109.782 91.5122V94.6341H106.66V91.5122H109.782ZM106.66 91.5122V94.6341H103.538V91.5122H106.66ZM103.538 91.5122V94.6341H100.416V91.5122H103.538ZM103.538 88.3902V91.5122H100.416V88.3902H103.538ZM116.026 88.3902V91.5122H112.904V88.3902H116.026ZM119.148 25.9512V29.0732H116.026V25.9512H119.148ZM119.148 29.0732V32.1951H116.026V29.0732H119.148ZM119.148 32.1951V35.3171H116.026V32.1951H119.148ZM119.148 35.3171V38.439H116.026V35.3171H119.148ZM119.148 38.439V41.561H116.026V38.439H119.148ZM119.148 41.561V44.6829H116.026V41.561H119.148ZM119.148 44.6829V47.8049H116.026V44.6829H119.148ZM119.148 47.8049V50.9268H116.026V47.8049H119.148ZM119.148 50.9268V54.0488H116.026V50.9268H119.148ZM119.148 54.0488V57.1707H116.026V54.0488H119.148ZM119.148 57.1707V60.2927H116.026V57.1707H119.148ZM119.148 60.2927V63.4146H116.026V60.2927H119.148ZM122.27 60.2927V63.4146H119.148V60.2927H122.27ZM122.27 63.4146V66.5366H119.148V63.4146H122.27ZM119.148 63.4146V66.5366H116.026V63.4146H119.148ZM119.148 66.5366V69.6585H116.026V66.5366H119.148ZM122.27 66.5366V69.6585H119.148V66.5366H122.27ZM125.392 66.5366V69.6585H122.27V66.5366H125.392ZM128.514 66.5366V69.6585H125.392V66.5366H128.514ZM131.636 66.5366V69.6585H128.514V66.5366H131.636ZM131.636 63.4146V66.5366H128.514V63.4146H131.636ZM128.514 63.4146V66.5366H125.392V63.4146H128.514ZM128.514 60.2927V63.4146H125.392V60.2927H128.514ZM131.636 57.1707V60.2927H128.514V57.1707H131.636ZM131.636 54.0488V57.1707H128.514V54.0488H131.636ZM131.636 50.9268V54.0488H128.514V50.9268H131.636ZM131.636 47.8049V50.9268H128.514V47.8049H131.636ZM131.636 44.6829V47.8049H128.514V44.6829H131.636ZM131.636 41.561V44.6829H128.514V41.561H131.636ZM131.636 38.439V41.561H128.514V38.439H131.636ZM131.636 35.3171V38.439H128.514V35.3171H131.636ZM131.636 60.2927V63.4146H128.514V60.2927H131.636ZM131.636 32.1951V35.3171H128.514V32.1951H131.636ZM131.636 29.0732V32.1951H128.514V29.0732H131.636ZM131.636 25.9512V29.0732H128.514V25.9512H131.636ZM128.514 25.9512V29.0732H125.392V25.9512H128.514ZM125.392 25.9512V29.0732H122.27V25.9512H125.392ZM122.27 25.9512V29.0732H119.148V25.9512H122.27ZM122.27 29.0732V32.1951H119.148V29.0732H122.27ZM122.27 32.1951V35.3171H119.148V32.1951H122.27ZM122.27 35.3171V38.439H119.148V35.3171H122.27ZM122.27 38.439V41.561H119.148V38.439H122.27ZM122.27 41.561V44.6829H119.148V41.561H122.27ZM122.27 44.6829V47.8049H119.148V44.6829H122.27ZM122.27 47.8049V50.9268H119.148V47.8049H122.27ZM122.27 50.9268V54.0488H119.148V50.9268H122.27ZM122.27 54.0488V57.1707H119.148V54.0488H122.27ZM125.392 57.1707V60.2927H122.27V57.1707H125.392ZM125.392 60.2927V63.4146H122.27V60.2927H125.392ZM125.392 63.4146V66.5366H122.27V63.4146H125.392ZM122.27 57.1707V60.2927H119.148V57.1707H122.27ZM128.514 57.1707V60.2927H125.392V57.1707H128.514ZM128.514 50.9268V54.0488H125.392V50.9268H128.514ZM128.514 47.8049V50.9268H125.392V47.8049H128.514ZM128.514 44.6829V47.8049H125.392V44.6829H128.514ZM128.514 41.561V44.6829H125.392V41.561H128.514ZM128.514 38.439V41.561H125.392V38.439H128.514ZM128.514 35.3171V38.439H125.392V35.3171H128.514ZM128.514 32.1951V35.3171H125.392V32.1951H128.514ZM128.514 29.0732V32.1951H125.392V29.0732H128.514ZM125.392 29.0732V32.1951H122.27V29.0732H125.392ZM125.392 32.1951V35.3171H122.27V32.1951H125.392ZM125.392 35.3171V38.439H122.27V35.3171H125.392ZM125.392 38.439V41.561H122.27V38.439H125.392ZM125.392 41.561V44.6829H122.27V41.561H125.392ZM125.392 44.6829V47.8049H122.27V44.6829H125.392ZM125.392 47.8049V50.9268H122.27V47.8049H125.392ZM125.392 50.9268V54.0488H122.27V50.9268H125.392ZM125.392 54.0488V57.1707H122.27V54.0488H125.392ZM128.514 54.0488V57.1707H125.392V54.0488H128.514ZM116.026 85.2683V88.3902H112.904V85.2683H116.026ZM103.538 85.2683V88.3902H100.416V85.2683H103.538ZM106.66 88.3902V91.5122H103.538V88.3902H106.66ZM109.782 88.3902V91.5122H106.66V88.3902H109.782ZM112.904 88.3902V91.5122H109.782V88.3902H112.904ZM100.416 75.9024V79.0244H97.2942V75.9024H100.416ZM97.2942 75.9024V79.0244H94.1723V75.9024H97.2942ZM94.1723 75.9024V79.0244H91.0503V75.9024H94.1723ZM91.0503 75.9024V79.0244H87.9284V75.9024H91.0503ZM87.9284 75.9024V79.0244H84.8064V75.9024H87.9284Z" fill="white"/>
</g>
<g filter="url(#filter1_d_4_3)">
<rect x="20" y="110" width="111" height="20" fill="white"/>
</g>
</g>
<defs>
<filter id="filter0_d_4_3" x="15.3064" y="25.9512" width="120.329" height="86.0488" filterUnits="userSpaceOnUse" color-interpolation-filters="sRGB">
<feFlood flood-opacity="0" result="BackgroundImageFix"/>
<feColorMatrix in="SourceAlpha" type="matrix" values="0 0 0 0 0 0 0 0 0 0 0 0 0 0 0 0 0 0 127 0" result="hardAlpha"/>
<feOffset dy="4"/>
<feGaussianBlur stdDeviation="2"/>
<feComposite in2="hardAlpha" operator="out"/>
<feColorMatrix type="matrix" values="0 0 0 0 0 0 0 0 0 0 0 0 0 0 0 0 0 0 0.25 0"/>
<feBlend mode="normal" in2="BackgroundImageFix" result="effect1_dropShadow_4_3"/>
<feBlend mode="normal" in="SourceGraphic" in2="effect1_dropShadow_4_3" result="shape"/>
</filter>
<filter id="filter1_d_4_3" x="16" y="110" width="119" height="28" filterUnits="userSpaceOnUse" color-interpolation-filters="sRGB">
<feFlood flood-opacity="0" result="BackgroundImageFix"/>
<feColorMatrix in="SourceAlpha" type="matrix" values="0 0 0 0 0 0 0 0 0 0 0 0 0 0 0 0 0 0 127 0" result="hardAlpha"/>
<feOffset dy="4"/>
<feGaussianBlur stdDeviation="2"/>
<feComposite in2="hardAlpha" operator="out"/>
<feColorMatrix type="matrix" values="0 0 0 0 0 0 0 0 0 0 0 0 0 0 0 0 0 0 0.25 0"/>
<feBlend mode="normal" in2="BackgroundImageFix" result="effect1_dropShadow_4_3"/>
<feBlend mode="normal" in="SourceGraphic" in2="effect1_dropShadow_4_3" result="shape"/>
</filter>
<clipPath id="clip0_4_3">
<rect width="152" height="152" fill="white"/>
</clipPath>
</defs>
</svg>
